<mxfile host="app.diagrams.net" agent="Mozilla/5.0 (Windows NT 10.0; Win64; x64) AppleWebKit/537.36 (KHTML, like Gecko) Chrome/131.0.0.0 Safari/537.36 Edg/131.0.0.0" version="25.0.3">
  <diagram name="Page-1" id="XxaU264lNmK4LRowSwOt">
    <mxGraphModel dx="868" dy="446" grid="1" gridSize="10" guides="1" tooltips="1" connect="1" arrows="1" fold="1" page="1" pageScale="1" pageWidth="850" pageHeight="1100" math="0" shadow="0">
      <root>
        <mxCell id="0" />
        <mxCell id="1" parent="0" />
        <mxCell id="_b4JGc0rOXz1DMYWGbtP-19" style="edgeStyle=orthogonalEdgeStyle;rounded=0;orthogonalLoop=1;jettySize=auto;html=1;entryX=0.5;entryY=0;entryDx=0;entryDy=0;" edge="1" parent="1" source="_b4JGc0rOXz1DMYWGbtP-1" target="_b4JGc0rOXz1DMYWGbtP-5">
          <mxGeometry relative="1" as="geometry" />
        </mxCell>
        <mxCell id="_b4JGc0rOXz1DMYWGbtP-1" value="" style="ellipse;whiteSpace=wrap;html=1;" vertex="1" parent="1">
          <mxGeometry x="290" y="20" width="120" height="70" as="geometry" />
        </mxCell>
        <mxCell id="_b4JGc0rOXz1DMYWGbtP-2" value="Start" style="text;strokeColor=none;align=center;fillColor=none;html=1;verticalAlign=middle;whiteSpace=wrap;rounded=0;" vertex="1" parent="1">
          <mxGeometry x="320" y="40" width="60" height="30" as="geometry" />
        </mxCell>
        <mxCell id="_b4JGc0rOXz1DMYWGbtP-3" value="" style="ellipse;whiteSpace=wrap;html=1;" vertex="1" parent="1">
          <mxGeometry x="540" y="590" width="120" height="70" as="geometry" />
        </mxCell>
        <mxCell id="_b4JGc0rOXz1DMYWGbtP-4" value="End" style="text;strokeColor=none;align=center;fillColor=none;html=1;verticalAlign=middle;whiteSpace=wrap;rounded=0;" vertex="1" parent="1">
          <mxGeometry x="570" y="610" width="60" height="30" as="geometry" />
        </mxCell>
        <mxCell id="_b4JGc0rOXz1DMYWGbtP-20" style="edgeStyle=orthogonalEdgeStyle;rounded=0;orthogonalLoop=1;jettySize=auto;html=1;" edge="1" parent="1" source="_b4JGc0rOXz1DMYWGbtP-5" target="_b4JGc0rOXz1DMYWGbtP-7">
          <mxGeometry relative="1" as="geometry" />
        </mxCell>
        <mxCell id="_b4JGc0rOXz1DMYWGbtP-5" value="" style="shape=parallelogram;perimeter=parallelogramPerimeter;whiteSpace=wrap;html=1;fixedSize=1;" vertex="1" parent="1">
          <mxGeometry x="290" y="120" width="120" height="60" as="geometry" />
        </mxCell>
        <mxCell id="_b4JGc0rOXz1DMYWGbtP-6" value="Nháº­p n(n&amp;gt;0)&lt;br&gt;sum =0&lt;br&gt;num =2" style="text;strokeColor=none;align=center;fillColor=none;html=1;verticalAlign=middle;whiteSpace=wrap;rounded=0;" vertex="1" parent="1">
          <mxGeometry x="320" y="135" width="60" height="30" as="geometry" />
        </mxCell>
        <mxCell id="_b4JGc0rOXz1DMYWGbtP-22" style="edgeStyle=orthogonalEdgeStyle;rounded=0;orthogonalLoop=1;jettySize=auto;html=1;entryX=0.5;entryY=0;entryDx=0;entryDy=0;exitX=0.5;exitY=1;exitDx=0;exitDy=0;" edge="1" parent="1" source="_b4JGc0rOXz1DMYWGbtP-7">
          <mxGeometry relative="1" as="geometry">
            <mxPoint x="355" y="295" as="sourcePoint" />
            <mxPoint x="350" y="315" as="targetPoint" />
          </mxGeometry>
        </mxCell>
        <mxCell id="_b4JGc0rOXz1DMYWGbtP-7" value="" style="rhombus;whiteSpace=wrap;html=1;" vertex="1" parent="1">
          <mxGeometry x="310" y="210" width="80" height="80" as="geometry" />
        </mxCell>
        <mxCell id="_b4JGc0rOXz1DMYWGbtP-40" style="edgeStyle=orthogonalEdgeStyle;rounded=0;orthogonalLoop=1;jettySize=auto;html=1;" edge="1" parent="1" source="_b4JGc0rOXz1DMYWGbtP-8">
          <mxGeometry relative="1" as="geometry">
            <mxPoint x="600" y="589.9999999999998" as="targetPoint" />
          </mxGeometry>
        </mxCell>
        <mxCell id="_b4JGc0rOXz1DMYWGbtP-8" value="while( sum&amp;lt;n)" style="text;strokeColor=none;align=center;fillColor=none;html=1;verticalAlign=middle;whiteSpace=wrap;rounded=0;" vertex="1" parent="1">
          <mxGeometry x="320" y="235" width="60" height="30" as="geometry" />
        </mxCell>
        <mxCell id="_b4JGc0rOXz1DMYWGbtP-23" style="edgeStyle=orthogonalEdgeStyle;rounded=0;orthogonalLoop=1;jettySize=auto;html=1;entryX=0.5;entryY=0;entryDx=0;entryDy=0;" edge="1" parent="1" source="_b4JGc0rOXz1DMYWGbtP-9" target="_b4JGc0rOXz1DMYWGbtP-11">
          <mxGeometry relative="1" as="geometry" />
        </mxCell>
        <mxCell id="_b4JGc0rOXz1DMYWGbtP-9" value="" style="rounded=0;whiteSpace=wrap;html=1;" vertex="1" parent="1">
          <mxGeometry x="310" y="315" width="80" height="20" as="geometry" />
        </mxCell>
        <mxCell id="_b4JGc0rOXz1DMYWGbtP-10" value="int count =0" style="text;strokeColor=none;align=center;fillColor=none;html=1;verticalAlign=middle;whiteSpace=wrap;rounded=0;" vertex="1" parent="1">
          <mxGeometry x="310" y="310" width="70" height="30" as="geometry" />
        </mxCell>
        <mxCell id="_b4JGc0rOXz1DMYWGbtP-24" style="edgeStyle=orthogonalEdgeStyle;rounded=0;orthogonalLoop=1;jettySize=auto;html=1;entryX=0;entryY=0.5;entryDx=0;entryDy=0;" edge="1" parent="1" source="_b4JGc0rOXz1DMYWGbtP-11" target="_b4JGc0rOXz1DMYWGbtP-14">
          <mxGeometry relative="1" as="geometry" />
        </mxCell>
        <mxCell id="_b4JGc0rOXz1DMYWGbtP-35" style="edgeStyle=orthogonalEdgeStyle;rounded=0;orthogonalLoop=1;jettySize=auto;html=1;entryX=0.5;entryY=0;entryDx=0;entryDy=0;" edge="1" parent="1" source="_b4JGc0rOXz1DMYWGbtP-11" target="_b4JGc0rOXz1DMYWGbtP-28">
          <mxGeometry relative="1" as="geometry" />
        </mxCell>
        <mxCell id="_b4JGc0rOXz1DMYWGbtP-11" value="" style="rhombus;whiteSpace=wrap;html=1;" vertex="1" parent="1">
          <mxGeometry x="297.5" y="360" width="105" height="80" as="geometry" />
        </mxCell>
        <mxCell id="_b4JGc0rOXz1DMYWGbtP-12" value="for( int i=2;&lt;br&gt;i&amp;lt;=sqrt(num)&lt;br&gt;i++);" style="text;strokeColor=none;align=center;fillColor=none;html=1;verticalAlign=middle;whiteSpace=wrap;rounded=0;" vertex="1" parent="1">
          <mxGeometry x="317.5" y="380" width="70" height="35" as="geometry" />
        </mxCell>
        <mxCell id="_b4JGc0rOXz1DMYWGbtP-25" style="edgeStyle=orthogonalEdgeStyle;rounded=0;orthogonalLoop=1;jettySize=auto;html=1;" edge="1" parent="1" source="_b4JGc0rOXz1DMYWGbtP-14" target="_b4JGc0rOXz1DMYWGbtP-18">
          <mxGeometry relative="1" as="geometry" />
        </mxCell>
        <mxCell id="_b4JGc0rOXz1DMYWGbtP-14" value="" style="rhombus;whiteSpace=wrap;html=1;" vertex="1" parent="1">
          <mxGeometry x="440" y="360" width="80" height="80" as="geometry" />
        </mxCell>
        <mxCell id="_b4JGc0rOXz1DMYWGbtP-15" value="if( num%i==0)" style="text;strokeColor=none;align=center;fillColor=none;html=1;verticalAlign=middle;whiteSpace=wrap;rounded=0;" vertex="1" parent="1">
          <mxGeometry x="442.5" y="382.5" width="77.5" height="35" as="geometry" />
        </mxCell>
        <mxCell id="_b4JGc0rOXz1DMYWGbtP-17" value="" style="rounded=0;whiteSpace=wrap;html=1;" vertex="1" parent="1">
          <mxGeometry x="440" y="475" width="80" height="20" as="geometry" />
        </mxCell>
        <mxCell id="_b4JGc0rOXz1DMYWGbtP-27" style="edgeStyle=orthogonalEdgeStyle;rounded=0;orthogonalLoop=1;jettySize=auto;html=1;entryX=1;entryY=1;entryDx=0;entryDy=0;" edge="1" parent="1" source="_b4JGc0rOXz1DMYWGbtP-18" target="_b4JGc0rOXz1DMYWGbtP-11">
          <mxGeometry relative="1" as="geometry" />
        </mxCell>
        <mxCell id="_b4JGc0rOXz1DMYWGbtP-18" value="count ++" style="text;strokeColor=none;align=center;fillColor=none;html=1;verticalAlign=middle;whiteSpace=wrap;rounded=0;" vertex="1" parent="1">
          <mxGeometry x="440" y="470" width="80" height="30" as="geometry" />
        </mxCell>
        <mxCell id="_b4JGc0rOXz1DMYWGbtP-34" style="edgeStyle=orthogonalEdgeStyle;rounded=0;orthogonalLoop=1;jettySize=auto;html=1;entryX=0;entryY=0.5;entryDx=0;entryDy=0;" edge="1" parent="1" source="_b4JGc0rOXz1DMYWGbtP-28" target="_b4JGc0rOXz1DMYWGbtP-33">
          <mxGeometry relative="1" as="geometry" />
        </mxCell>
        <mxCell id="_b4JGc0rOXz1DMYWGbtP-28" value="" style="rhombus;whiteSpace=wrap;html=1;" vertex="1" parent="1">
          <mxGeometry x="310" y="495" width="80" height="80" as="geometry" />
        </mxCell>
        <mxCell id="_b4JGc0rOXz1DMYWGbtP-29" value="if( count==0)" style="text;strokeColor=none;align=center;fillColor=none;html=1;verticalAlign=middle;whiteSpace=wrap;rounded=0;" vertex="1" parent="1">
          <mxGeometry x="312.5" y="517.5" width="77.5" height="35" as="geometry" />
        </mxCell>
        <mxCell id="_b4JGc0rOXz1DMYWGbtP-32" value="" style="rounded=0;whiteSpace=wrap;html=1;" vertex="1" parent="1">
          <mxGeometry x="440" y="525" width="80" height="20" as="geometry" />
        </mxCell>
        <mxCell id="_b4JGc0rOXz1DMYWGbtP-33" value="In num" style="text;strokeColor=none;align=center;fillColor=none;html=1;verticalAlign=middle;whiteSpace=wrap;rounded=0;" vertex="1" parent="1">
          <mxGeometry x="440" y="520" width="80" height="30" as="geometry" />
        </mxCell>
        <mxCell id="_b4JGc0rOXz1DMYWGbtP-36" value="" style="rounded=0;whiteSpace=wrap;html=1;" vertex="1" parent="1">
          <mxGeometry x="312.5" y="615" width="80" height="20" as="geometry" />
        </mxCell>
        <mxCell id="_b4JGc0rOXz1DMYWGbtP-39" style="edgeStyle=orthogonalEdgeStyle;rounded=0;orthogonalLoop=1;jettySize=auto;html=1;entryX=0;entryY=0.5;entryDx=0;entryDy=0;" edge="1" parent="1" source="_b4JGc0rOXz1DMYWGbtP-37" target="_b4JGc0rOXz1DMYWGbtP-7">
          <mxGeometry relative="1" as="geometry">
            <mxPoint x="200" y="250" as="targetPoint" />
            <Array as="points">
              <mxPoint x="240" y="630" />
              <mxPoint x="240" y="250" />
            </Array>
          </mxGeometry>
        </mxCell>
        <mxCell id="_b4JGc0rOXz1DMYWGbtP-37" value="num++" style="text;strokeColor=none;align=center;fillColor=none;html=1;verticalAlign=middle;whiteSpace=wrap;rounded=0;" vertex="1" parent="1">
          <mxGeometry x="313.75" y="610" width="80" height="30" as="geometry" />
        </mxCell>
        <mxCell id="_b4JGc0rOXz1DMYWGbtP-38" style="edgeStyle=orthogonalEdgeStyle;rounded=0;orthogonalLoop=1;jettySize=auto;html=1;entryX=0.455;entryY=0.038;entryDx=0;entryDy=0;entryPerimeter=0;" edge="1" parent="1" target="_b4JGc0rOXz1DMYWGbtP-37">
          <mxGeometry relative="1" as="geometry">
            <mxPoint x="350.05" y="575" as="sourcePoint" />
            <mxPoint x="349.94888268156427" y="610" as="targetPoint" />
            <Array as="points" />
          </mxGeometry>
        </mxCell>
        <mxCell id="_b4JGc0rOXz1DMYWGbtP-41" value="true" style="text;strokeColor=none;align=center;fillColor=none;html=1;verticalAlign=middle;whiteSpace=wrap;rounded=0;" vertex="1" parent="1">
          <mxGeometry x="350" y="280" width="60" height="30" as="geometry" />
        </mxCell>
        <mxCell id="_b4JGc0rOXz1DMYWGbtP-42" value="false" style="text;strokeColor=none;align=center;fillColor=none;html=1;verticalAlign=middle;whiteSpace=wrap;rounded=0;" vertex="1" parent="1">
          <mxGeometry x="390" y="220" width="60" height="30" as="geometry" />
        </mxCell>
        <mxCell id="_b4JGc0rOXz1DMYWGbtP-43" value="true" style="text;strokeColor=none;align=center;fillColor=none;html=1;verticalAlign=middle;whiteSpace=wrap;rounded=0;" vertex="1" parent="1">
          <mxGeometry x="390" y="370" width="60" height="30" as="geometry" />
        </mxCell>
        <mxCell id="_b4JGc0rOXz1DMYWGbtP-44" value="true" style="text;strokeColor=none;align=center;fillColor=none;html=1;verticalAlign=middle;whiteSpace=wrap;rounded=0;" vertex="1" parent="1">
          <mxGeometry x="480" y="440" width="60" height="30" as="geometry" />
        </mxCell>
        <mxCell id="_b4JGc0rOXz1DMYWGbtP-45" value="false" style="text;strokeColor=none;align=center;fillColor=none;html=1;verticalAlign=middle;whiteSpace=wrap;rounded=0;" vertex="1" parent="1">
          <mxGeometry x="297.5" y="440" width="60" height="30" as="geometry" />
        </mxCell>
        <mxCell id="_b4JGc0rOXz1DMYWGbtP-46" value="true" style="text;strokeColor=none;align=center;fillColor=none;html=1;verticalAlign=middle;whiteSpace=wrap;rounded=0;" vertex="1" parent="1">
          <mxGeometry x="382.5" y="510" width="60" height="30" as="geometry" />
        </mxCell>
      </root>
    </mxGraphModel>
  </diagram>
</mxfile>
